<svg width="348" height="145" viewBox="0 0 348 145" fill="none" xmlns="http://www.w3.org/2000/svg">
<path d="M0 59C0 47.9543 8.95431 39 20 39H348V106H20C8.95431 106 0 97.0457 0 86V59Z" fill="#FFFEF8"/>
<path d="M332.103 25L336.718 20L341.333 13.5L344.923 7L348 0V39H308L314.154 36.5L320.308 33.5L326.462 30L332.103 25Z" fill="#FFFEF8"/>
<path d="M333.614 121.18L328.489 116.77L321.829 112.362L315.17 108.935L308 106L347.927 105.948L347.976 144.227L345.409 138.341L342.331 132.456L338.74 126.572L333.614 121.18Z" fill="#FFFEF8"/>
</svg>
